<svg width="16" height="16" viewBox="0 0 16 16" fill="none" xmlns="http://www.w3.org/2000/svg">
<path d="M14 9.5H12.3281L10.8281 11H14C14.2757 11 14.5 11.2243 14.5 11.5V14C14.5 14.2757 14.2757 14.5 14 14.5H2C1.72431 14.5 1.5 14.2757 1.5 14V11.5C1.5 11.225 1.72438 11 2 11H5.17188L3.67188 9.5H2C0.895313 9.5 0 10.3953 0 11.5V14C0 15.1047 0.895313 16 2 16H14C15.1047 16 16 15.1047 16 14V11.5C16 10.3969 15.1031 9.5 14 9.5ZM13.5 12.75C13.5 12.3356 13.1641 12 12.75 12C12.3359 12 12 12.3344 12 12.75C12 13.1641 12.3359 13.5 12.75 13.5C13.1641 13.5 13.5 13.1656 13.5 12.75ZM7.46875 11.5031C7.61562 11.6781 7.80625 11.75 8 11.75C8.19375 11.75 8.38375 11.6768 8.53031 11.5303L12.7803 7.28028C13.0733 6.98731 13.0733 6.51278 12.7803 6.21966C12.4873 5.92653 12.0128 5.92669 11.7197 6.21966L8.75 9.19063V0.75C8.75 0.335938 8.41562 0 8 0C7.58437 0 7.25 0.335938 7.25 0.75V9.19063L4.25313 6.21875C3.96016 5.92578 3.48563 5.92578 3.1925 6.21875C2.89938 6.51172 2.89953 6.98625 3.1925 7.27938L7.46875 11.5031Z" fill="#737373"/>
</svg>
