<svg width="16" height="16" viewBox="0 0 16 16" fill="none" xmlns="http://www.w3.org/2000/svg">
<path d="M14 3H8.62187L7.08437 1.58594C6.70937 1.21062 6.20312 1 5.67188 1H2C0.895625 1 0 1.89562 0 3V13C0 14.1044 0.895625 15 2 15H14C15.1044 15 16 14.1044 16 13V5C16 3.89687 15.1031 3 14 3ZM14.5 13C14.5 13.2758 14.2756 13.5 14 13.5H2C1.72438 13.5 1.5 13.2758 1.5 13V3C1.5 2.72425 1.72438 2.5 2 2.5H5.67188C5.80541 2.5 5.93091 2.552 6.02531 2.6465L8 4.5H14C14.2756 4.5 14.5 4.72425 14.5 5V13ZM10.5 8.25H8.75V6.47188C8.72188 6.08438 8.41562 5.75 8 5.75C7.58437 5.75 7.25 6.08438 7.25 6.47188V8.25H5.47188C5.08438 8.25 4.75 8.58437 4.75 9C4.75 9.41438 5.08531 9.72188 5.47188 9.72188H7.22188V11.4719C7.25 11.9156 7.58437 12.25 8 12.25C8.41438 12.25 8.72188 11.9144 8.72188 11.5281V9.72188H10.4719C10.9156 9.72188 11.25 9.41562 11.25 9C11.25 8.58437 10.9156 8.25 10.5 8.25Z" fill="#737373"/>
</svg>
