<svg width="16" height="16" viewBox="0 0 16 16" fill="none" xmlns="http://www.w3.org/2000/svg">
<g clip-path="url(#clip0_420_6421)">
<path d="M15.7063 6.20625L13.7922 4.29219C13.6062 4.10625 13.3531 4 13.0875 4H8C6.89687 4 5.97188 4.89687 6 6L6.0002 13.9719C6 15.1031 6.89687 16 8 16H14C15.1 16 16 15.1 16 14L16.0003 6.91563C16 6.65 15.8938 6.39375 15.7063 6.20625ZM14.5 14C14.5 14.2761 14.2761 14.5 14 14.5H8C7.72381 14.5 7.5 14.2761 7.5 14V6.00313C7.5 5.727 7.72388 5.50313 8 5.50313H12V7C12 7.55219 12.4478 8 13 8H14.5003V14H14.5ZM9.92813 3C9.70625 2.13906 8.93125 1.5 8 1.5H6.725C6.60313 0.654063 5.87813 0 5 0C4.12187 0 3.39688 0.654063 3.275 1.5H2C0.895313 1.5 0 2.39531 0 3.5V12C0 13.1044 0.895313 14 2 14H5V12.5H2C1.72388 12.5 1.5 12.2761 1.5 12V3.5C1.5 3.225 1.72438 3 2 3H2.5V3.5C2.5 4.05219 2.94781 4.5 3.5 4.5H5.41719C5.9375 3.60625 6.89375 3 8 3H9.92813ZM5 2.25C4.72431 2.25 4.5 2.02575 4.5 1.75C4.5 1.47425 4.72431 1.25 5 1.25C5.27569 1.25 5.5 1.47425 5.5 1.75C5.5 2.02575 5.275 2.25 5 2.25Z" fill="#737373"/>
</g>
<defs>
<clipPath id="clip0_420_6421">
<rect width="16" height="16" fill="white"/>
</clipPath>
</defs>
</svg>
