<svg width="15" height="16" viewBox="0 0 15 16" fill="none" xmlns="http://www.w3.org/2000/svg">
<g clip-path="url(#clip0_2313_4075)">
<path d="M11.1347 9C10.2218 9 9.41261 9.37813 8.85588 10.0359L6.00388 8.62813C6.04816 8.425 6.07347 8.21562 6.07347 8C6.07347 7.78438 6.04816 7.575 6.00388 7.37187L8.85525 5.96344C9.41388 6.59375 10.2205 7 11.1347 7C12.8119 7 14.1714 5.65688 14.1714 4C14.1714 2.34312 12.8119 1 11.1347 1C9.45753 1 8.09796 2.34312 8.09796 4C8.09796 4.21556 8.12317 4.425 8.16692 4.6275L5.31429 6.0375C4.75755 5.37812 3.95092 5 3.03673 5C1.35957 5 0 6.31563 0 8C0 9.68437 1.35957 11 3.03673 11C3.94965 11 4.75882 10.6219 5.31555 9.96406L8.16692 11.3725C8.12327 11.575 8.09796 11.7844 8.09796 12C8.09796 13.6569 9.45753 15 11.1347 15C12.8119 15 14.1714 13.6569 14.1714 12C14.1714 10.3431 12.8112 9 11.1347 9ZM11.1347 2.5C11.972 2.5 12.6531 3.17281 12.6531 4C12.6531 4.82719 11.973 5.5 11.1347 5.5C10.2964 5.5 9.61633 4.82812 9.61633 4C9.61633 3.17188 10.2964 2.5 11.1347 2.5ZM3.03673 9.5C2.19942 9.5 1.51837 8.82812 1.51837 8C1.51837 7.17188 2.19942 6.5 3.03673 6.5C3.87405 6.5 4.5551 7.17188 4.5551 8C4.5551 8.82812 3.875 9.5 3.03673 9.5ZM11.1347 13.5C10.2974 13.5 9.61633 12.8272 9.61633 12C9.61633 11.1728 10.2974 10.5 11.1347 10.5C11.972 10.5 12.6531 11.1728 12.6531 12C12.6531 12.8272 11.973 13.5 11.1347 13.5Z" fill="#737373"/>
</g>
<defs>
<clipPath id="clip0_2313_4075">
<rect width="14.1714" height="16" fill="white"/>
</clipPath>
</defs>
</svg>
