<svg width="16" height="16" viewBox="0 0 16 16" fill="none" xmlns="http://www.w3.org/2000/svg">
<g clip-path="url(#clip0_1959_4956)">
<path d="M11.168 9.02942C10.7551 6.85059 8.83606 5.21936 6.5625 5.21936C4.26941 5.21936 2.32727 6.87598 1.94312 9.10645C0.799194 9.4773 0 10.5529 0 11.7819C0 13.3326 1.26172 14.5944 2.8125 14.5944H11.7499C13.3008 14.5944 14.5624 13.3326 14.5624 11.7819C14.5624 10.0076 12.9248 8.6593 11.168 9.02942ZM11.7499 13.6569H2.8125C1.77856 13.6569 0.9375 12.8157 0.9375 11.7819C0.9375 10.885 1.5752 10.1108 2.45398 9.94116C2.65735 9.90186 2.81079 9.73377 2.83142 9.52759C3.02393 7.60596 4.62793 6.15686 6.5625 6.15686C8.54321 6.15686 10.1875 7.70398 10.3058 9.67896C10.3256 10.0082 10.6708 10.2145 10.9698 10.0767C12.199 9.51038 13.6249 10.4126 13.6249 11.7819C13.6249 12.8157 12.7838 13.6569 11.7499 13.6569Z" fill="#737373"/>
<path d="M8.20752 9.97219L5.83252 8.56594C5.52063 8.38124 5.125 8.60646 5.125 8.96938V11.7818C5.125 12.1442 5.52026 12.37 5.83252 12.1852L8.20752 10.779C8.51343 10.5978 8.51392 10.1536 8.20752 9.97219ZM6.0625 10.9595V9.79165L7.04871 10.3756L6.0625 10.9595Z" fill="#737373"/>
<path d="M11.5322 6.77946C11.6718 6.9976 11.9617 7.0612 12.1797 6.9218C12.3977 6.78227 12.4614 6.49235 12.322 6.27433C12.0315 5.82011 11.6849 5.40214 11.2921 5.03203C11.1036 4.85441 10.807 4.86332 10.6295 5.0518C10.452 5.24016 10.4608 5.53679 10.6492 5.7144C10.9861 6.03178 11.2832 6.39006 11.5322 6.77946Z" fill="#737373"/>
<path d="M11.5272 3.99151C12.2612 4.58941 12.8681 5.30963 13.3309 6.13214C13.458 6.35784 13.7439 6.43768 13.9693 6.31072C14.1949 6.18377 14.2749 5.898 14.1479 5.6723C13.6273 4.74713 12.9448 3.93707 12.1193 3.2647C11.9187 3.10113 11.6234 3.13128 11.4598 3.33196C11.2963 3.53277 11.3265 3.82794 11.5272 3.99151Z" fill="#737373"/>
<path d="M15.9476 5.05916C15.2326 3.6805 14.1935 2.46016 12.9428 1.53011C12.7351 1.37569 12.4414 1.41878 12.287 1.62655C12.1325 1.83419 12.1757 2.12789 12.3834 2.28231C13.5206 3.12813 14.4653 4.23751 15.1154 5.4908C15.2346 5.72066 15.5177 5.81014 15.7473 5.691C15.9772 5.57186 16.0669 5.2889 15.9476 5.05916Z" fill="#737373"/>
</g>
<defs>
<clipPath id="clip0_1959_4956">
<rect width="16" height="16" fill="white"/>
</clipPath>
</defs>
</svg>
