<svg width="16" height="16" viewBox="0 0 16 16" fill="none" xmlns="http://www.w3.org/2000/svg">
<path d="M10.4688 5.46875L7 8.94063L5.50313 7.46875C5.21016 7.17578 4.73563 7.17578 4.4425 7.46875C4.14937 7.76172 4.14953 8.23625 4.4425 8.52938L6.4425 10.5294C6.61562 10.6781 6.80625 10.75 7 10.75C7.19375 10.75 7.38375 10.6768 7.53031 10.5303L11.5303 6.53028C11.8233 6.23731 11.8233 5.76278 11.5303 5.46966C11.2373 5.17653 10.7625 5.17812 10.4688 5.46875ZM8 0C3.58125 0 0 3.58125 0 8C0 12.4187 3.58125 16 8 16C12.4187 16 16 12.4187 16 8C16 3.58125 12.4187 0 8 0ZM8 14.5C4.41563 14.5 1.5 11.5841 1.5 8C1.5 4.41594 4.41563 1.5 8 1.5C11.5844 1.5 14.5 4.41594 14.5 8C14.5 11.5841 11.5844 14.5 8 14.5Z" fill="#37B777"/>
</svg>
