<svg width="12" height="13" viewBox="0 0 12 13" fill="none" xmlns="http://www.w3.org/2000/svg">
<path d="M6.02344 0.5C2.72789 0.5 0 3.18102 0 6.47656C0 9.77211 2.72789 12.5 6.02344 12.5C9.31898 12.5 12 9.77211 12 6.47656C12 3.18102 9.31898 0.5 6.02344 0.5ZM8.98172 8.44039C9.25594 8.71461 9.25594 9.16063 8.98172 9.43508C8.70961 9.70695 8.26359 9.71141 7.98703 9.43508L6.02344 7.47078L4.01273 9.43531C3.73852 9.70953 3.2925 9.70953 3.01805 9.43531C2.74383 9.16109 2.74383 8.71508 3.01805 8.44062L4.98211 6.47656L3.01805 4.5125C2.74383 4.23805 2.74383 3.79203 3.01805 3.51781C3.2925 3.24359 3.73852 3.24359 4.01273 3.51781L6.02344 5.48234L7.98703 3.51781C8.26078 3.24406 8.7068 3.24312 8.98172 3.51781C9.25594 3.79203 9.25594 4.23805 8.98172 4.5125L7.01766 6.47656L8.98172 8.44039Z" fill="#FF6060"/>
</svg>
