<svg width="15" height="16" viewBox="0 0 15 16" fill="none" xmlns="http://www.w3.org/2000/svg">
<g clip-path="url(#clip0_1474_4084)">
<path d="M13.5338 2.5H10.953L9.88784 0.726562C9.5896 0.275844 9.12907 0 8.60276 0H5.43233C4.90601 0 4.41729 0.275844 4.14787 0.726562L3.08208 2.5H0.501253C0.223214 2.5 0 2.72281 0 3V3.5C0 3.77813 0.223214 4 0.501253 4H1.00251V14C1.00251 15.1047 1.90006 16 3.00752 16H11.0276C12.135 16 13.0326 15.1047 13.0326 14V4H13.5338C13.8127 4 14.0351 3.77813 14.0351 3.5V3C14.0351 2.72281 13.8127 2.5 13.5338 2.5ZM5.38534 1.59C5.41667 1.53531 5.47932 1.5 5.54511 1.5H8.48997C8.55655 1.5 8.6192 1.53516 8.65053 1.58984L9.198 2.5H4.83709L5.38534 1.59ZM11.0276 14.5H3.00752C2.73067 14.5 2.50627 14.2762 2.50627 14V4H11.5288V14C11.5288 14.275 11.3033 14.5 11.0276 14.5ZM7.01754 13C7.29461 13 7.5188 12.7764 7.5188 12.5V6C7.5188 5.72363 7.29461 5.5 7.01754 5.5C6.74048 5.5 6.51629 5.725 6.51629 6V12.5C6.51629 12.775 6.74185 13 7.01754 13ZM4.51128 13C4.78697 13 5.01253 12.775 5.01253 12.5V6C5.01253 5.72363 4.78835 5.5 4.51128 5.5C4.23421 5.5 4.01003 5.725 4.01003 6V12.5C4.01003 12.775 4.23559 13 4.51128 13ZM9.52381 13C9.80088 13 10.0251 12.7764 10.0251 12.5V6C10.0251 5.72363 9.80088 5.5 9.52381 5.5C9.24674 5.5 9.02256 5.725 9.02256 6V12.5C9.02256 12.775 9.24812 13 9.52381 13Z" fill="#737373"/>
</g>
<defs>
<clipPath id="clip0_1474_4084">
<rect width="14.0351" height="16" fill="white"/>
</clipPath>
</defs>
</svg>
