<svg width="24" height="24" viewBox="0 0 24 24" fill="none" xmlns="http://www.w3.org/2000/svg">
<g clip-path="url(#clip0_406_8551)">
<path d="M21 14.2501H15V16.5001H21C21.4135 16.5001 21.75 16.8366 21.75 17.2501V21.0001C21.75 21.4136 21.4135 21.7501 21 21.7501H3C2.58647 21.7501 2.25 21.4136 2.25 21.0001V17.2501C2.25 16.8376 2.58656 16.5001 3 16.5001H9V14.2501H3C1.34297 14.2501 0 15.5931 0 17.2501V21.0001C0 22.6571 1.34297 24.0001 3 24.0001H21C22.657 24.0001 24 22.6571 24 21.0001V17.2501C24 15.5954 22.6547 14.2501 21 14.2501ZM6.37969 8.2548L10.875 3.84104V16.5001C10.875 17.1212 11.3789 17.6251 12 17.6251C12.6211 17.6251 13.125 17.1212 13.125 16.5001V3.84104L17.5795 8.29558C17.7984 8.51729 18.0844 8.62511 18.375 8.62511C18.6656 8.62511 18.9506 8.51523 19.1705 8.29553C19.6099 7.85608 19.6099 7.14428 19.1705 6.70459L12.7955 0.32959C12.356 -0.109863 11.6442 -0.109863 11.2045 0.32959L4.82953 6.70459C4.39008 7.14404 4.39008 7.85584 4.82953 8.29553C5.26898 8.73522 5.98125 8.73292 6.37969 8.2548ZM20.25 19.1251C20.25 18.5035 19.7461 18.0001 19.125 18.0001C18.5039 18.0001 18 18.5017 18 19.1251C18 19.7462 18.5039 20.2501 19.125 20.2501C19.7461 20.2501 20.25 19.7485 20.25 19.1251Z" fill="white"/>
</g>
<defs>
<clipPath id="clip0_406_8551">
<rect width="24" height="24" fill="white"/>
</clipPath>
</defs>
</svg>
